<svg width="178" height="128" viewBox="0 0 178 128" fill="none" xmlns="http://www.w3.org/2000/svg">
<g clip-path="url(#clip0_622_96)">
<path d="M88.9853 102.42C75.4391 102.42 62.3436 98.2729 51.0279 90.4112C45.7313 89.6806 40.7472 88.8081 36.0076 87.7891C36.302 88.6662 36.61 89.5387 36.9315 90.402C38.2223 93.8714 40.4528 96.8554 43.3468 98.9508C56.3699 108.367 72.0763 113.87 88.9853 113.87C105.894 113.87 121.603 108.367 134.626 98.9462C137.52 96.8531 139.748 93.8691 141.039 90.3974C141.358 89.5409 141.664 88.6799 141.956 87.8097C136.918 88.9089 131.838 89.7791 126.861 90.4661C115.566 98.2912 102.502 102.42 88.983 102.42H88.9853Z" fill="#F1EAFF"/>
<path d="M177.072 58.5016C173.374 51.7528 161.272 49.1902 154.216 48.13C156.514 49.1101 158.795 50.0971 161.003 51.1963C164.205 52.7833 167.429 54.5627 170.106 56.9215C171.426 58.1375 172.912 59.6947 172.934 61.5542C172.841 62.8046 171.929 63.7687 170.989 64.5771C169.877 65.5091 168.673 66.1962 167.321 66.8648C164.295 68.3511 160.853 69.4595 157.522 70.3457C153.596 71.3739 149.624 72.2029 145.625 72.89C145.625 72.8808 145.627 72.8716 145.629 72.8625C145.878 71.2892 146.089 69.7022 146.256 68.1015C146.596 64.8725 146.77 61.5909 146.77 58.268C146.77 55.1329 146.614 52.0345 146.311 48.9841C146.057 46.4147 145.301 43.93 144.096 41.6903C133.206 21.4623 114.929 6.35031 93.1994 0.554192C91.8136 0.185494 90.3937 0 88.9762 0C87.5586 0 86.1908 0.178624 84.8299 0.540451C70.2556 4.41521 57.2326 12.4831 46.945 23.473C41.8567 28.9096 37.441 35.0584 33.8359 41.7682C32.647 43.9827 31.9133 46.4445 31.662 48.9819C31.3585 52.0322 31.2023 55.1306 31.2023 58.268C31.2023 61.5954 31.3767 64.8794 31.7186 68.1106C31.8862 69.7091 32.0945 71.2961 32.3436 72.8671C32.3436 72.8762 32.3459 72.8854 32.3481 72.8945C21.2997 71.0121 7.98678 67.7282 5.24901 62.4702C4.54928 60.9977 5.62039 59.2985 6.68696 58.0802C7.83732 56.8092 9.1779 55.7696 10.6294 54.7825C14.6806 52.0803 19.2435 50.0467 23.7567 48.13C16.5103 49.2131 1.4877 52.3139 0.070129 61.0481C-0.765467 67.5427 5.93289 72.0106 10.8604 74.6579C16.6213 77.6807 22.7943 79.7326 29.0193 81.4227C38.8291 84.0539 48.8177 85.6936 58.8721 86.7928C65.0383 87.4478 71.7117 87.9218 78.6773 88.1669V96.1889L105.253 82.6021L78.6773 69.0152V76.8311C67.5201 76.5747 56.3766 75.8739 45.2965 74.6991C44.9455 74.6602 44.5628 74.6167 44.1552 74.5686C44.1552 74.5594 44.1506 74.5502 44.1506 74.5434C43.8336 72.9861 43.5619 71.4175 43.3377 69.835C42.7965 66.0336 42.5247 62.1725 42.5247 58.268C42.5247 55.5497 42.6606 52.8108 42.9278 50.1269C43.0297 49.0872 43.3264 48.0864 43.7861 47.2345C46.9043 41.4293 50.7335 36.082 55.1651 31.3439C64.1981 21.6959 75.4526 14.8739 87.708 11.6151C88.1202 11.5052 88.5459 11.4502 88.9762 11.4502C89.4064 11.4502 89.8706 11.5098 90.3122 11.6266C99.5038 14.0792 108.018 18.4532 115.618 24.6341C123.174 30.7805 129.411 38.3606 134.15 47.1658C134.633 48.059 134.943 49.0849 135.045 50.1292C135.312 52.8108 135.448 55.5497 135.448 58.268C135.448 62.1657 135.176 66.0244 134.637 69.8213C134.413 71.4014 134.144 72.9678 133.827 74.5251C133.827 74.5342 133.822 74.5434 133.822 74.5502C131.03 74.8709 128.233 75.1525 125.437 75.409C118.213 76.0044 110.967 76.4327 103.711 76.6823L115.289 82.6021L104.807 87.9608C125.86 86.8684 147.146 83.4013 163.557 76.4006C168.77 74.0304 176.456 69.993 177.819 63.8511C178.231 62.0878 177.916 60.0474 177.072 58.5016Z" fill="#F1EAFF"/>
<path d="M36.0869 112.144L37.4682 105.706L38.3604 106.341L37.0719 112.144L36.6439 111.839L41.6462 108.679L42.4863 109.276L36.961 112.767L36.0869 112.144Z" fill="#F1EAFF"/>
<path d="M42.2802 116.156L45.2263 110.868L46.1389 111.388L43.1928 116.676L42.2802 116.156ZM46.2499 110.112C46.0733 110.012 45.9578 109.867 45.9079 109.682C45.8581 109.494 45.8808 109.315 45.9759 109.144C46.0755 108.965 46.2182 108.848 46.4016 108.796C46.585 108.743 46.7662 108.768 46.9428 108.869C47.1195 108.97 47.2349 109.112 47.287 109.295C47.3391 109.478 47.3165 109.657 47.2214 109.828C47.1217 110.007 46.9791 110.126 46.7979 110.186C46.6145 110.243 46.431 110.22 46.2476 110.115L46.2499 110.112Z" fill="#F1EAFF"/>
<path d="M48.8518 119.632C48.4147 119.431 48.0275 119.179 47.6878 118.872C47.3504 118.565 47.1081 118.27 46.9655 117.986L47.7195 117.376C47.8735 117.64 48.0909 117.903 48.3717 118.166C48.6525 118.43 48.965 118.641 49.3115 118.799C49.7553 119.002 50.104 119.082 50.3599 119.041C50.6136 119 50.7947 118.86 50.9011 118.624C50.9781 118.45 50.9804 118.288 50.9057 118.137C50.831 117.986 50.7064 117.839 50.532 117.702C50.3577 117.564 50.1607 117.42 49.9387 117.271C49.7168 117.122 49.5017 116.964 49.2888 116.797C49.076 116.63 48.8948 116.444 48.7454 116.245C48.5959 116.046 48.5031 115.824 48.4691 115.576C48.4351 115.331 48.4917 115.047 48.6344 114.729C48.7839 114.395 49.0058 114.145 49.2956 113.976C49.5877 113.809 49.9274 113.731 50.3169 113.747C50.7064 113.763 51.1253 113.873 51.576 114.081C51.9202 114.239 52.2508 114.443 52.5655 114.692C52.8803 114.942 53.1158 115.199 53.2698 115.462L52.5067 116.066C52.3436 115.789 52.1466 115.56 51.9156 115.379C51.6847 115.199 51.4401 115.047 51.1819 114.931C50.7653 114.738 50.4211 114.667 50.1516 114.715C49.8821 114.763 49.6964 114.899 49.5968 115.121C49.513 115.308 49.5085 115.48 49.5855 115.638C49.6625 115.796 49.787 115.947 49.9569 116.092C50.1267 116.236 50.3237 116.385 50.5456 116.531C50.7675 116.68 50.9827 116.838 51.1955 117.005C51.4084 117.175 51.5873 117.356 51.7367 117.55C51.8862 117.745 51.979 117.963 52.0175 118.208C52.056 118.453 52.004 118.73 51.8636 119.044C51.7141 119.378 51.4922 119.623 51.1955 119.781C50.9011 119.939 50.5547 120.008 50.1561 119.989C49.7576 119.969 49.3228 119.852 48.8518 119.634V119.632Z" fill="#F1EAFF"/>
<path d="M54.8821 122.062L56.9179 116.353L57.9029 116.712L55.8672 122.421L54.8821 122.062ZM57.8033 115.434C57.6108 115.363 57.4749 115.242 57.3957 115.066C57.3142 114.889 57.3074 114.708 57.3753 114.523C57.4455 114.328 57.5655 114.191 57.7376 114.108C57.9097 114.026 58.0932 114.019 58.2834 114.088C58.4759 114.157 58.6117 114.278 58.6932 114.45C58.7748 114.621 58.7838 114.8 58.7159 114.988C58.6457 115.182 58.5279 115.322 58.3558 115.412C58.186 115.499 58.0003 115.508 57.801 115.434H57.8033Z" fill="#F1EAFF"/>
<path d="M62.1556 124.492C61.5963 124.331 61.2046 124.05 60.9849 123.644C60.7652 123.241 60.7381 122.744 60.9034 122.156L62.4047 116.802L63.4124 117.09L61.9247 122.401C61.8363 122.717 61.8431 122.98 61.9473 123.193C62.0515 123.406 62.2417 123.55 62.5225 123.633C62.8373 123.722 63.1248 123.706 63.3875 123.582L63.4894 124.432C63.2969 124.528 63.0841 124.579 62.8508 124.583C62.6176 124.588 62.3866 124.558 62.1556 124.492ZM60.8558 118.679L61.1004 117.809L64.6511 118.826L64.4065 119.696L60.8558 118.679Z" fill="#F1EAFF"/>
<path d="M69.5673 126.234C68.9604 126.115 68.4509 125.879 68.041 125.527C67.6312 125.174 67.3413 124.743 67.176 124.237C67.0107 123.731 66.9835 123.182 67.099 122.588C67.2122 121.998 67.4364 121.496 67.7716 121.089C68.1067 120.681 68.5143 120.388 68.9967 120.216C69.479 120.042 69.9908 120.01 70.5342 120.115C71.0845 120.223 71.5465 120.447 71.9178 120.784C72.2915 121.121 72.5519 121.544 72.7036 122.053C72.8553 122.561 72.8712 123.122 72.7534 123.736C72.7444 123.782 72.7331 123.832 72.7172 123.892C72.7014 123.951 72.6855 124.006 72.6697 124.056L67.8372 123.106L67.9867 122.33L72.2847 123.175L71.8159 123.363C71.8975 122.982 71.8861 122.625 71.7865 122.295C71.6869 121.966 71.5148 121.689 71.2725 121.466C71.0302 121.244 70.7267 121.095 70.3621 121.024C70.0044 120.953 69.6715 120.976 69.359 121.091C69.0465 121.205 68.7838 121.398 68.5687 121.67C68.3535 121.943 68.2086 122.275 68.1339 122.664L68.0999 122.845C68.0229 123.243 68.0433 123.614 68.1588 123.958C68.2743 124.304 68.4713 124.592 68.7544 124.828C69.0352 125.062 69.3794 125.22 69.787 125.3C70.1221 125.366 70.4391 125.366 70.738 125.3C71.037 125.234 71.311 125.101 71.5646 124.901L71.9994 125.71C71.6823 125.973 71.3155 126.152 70.9011 126.241C70.4867 126.33 70.0451 126.33 69.5718 126.237L69.5673 126.234Z" fill="#F1EAFF"/>
<path d="M83.3037 127.856L81.0664 121.67L82.1579 121.725L84.1393 127.327L83.6162 127.302L86.1705 121.924L87.1963 121.975L84.3748 127.911L83.306 127.858L83.3037 127.856Z" fill="#F1EAFF"/>
<path d="M90.8897 120.754C90.6859 120.759 90.5161 120.692 90.3779 120.557C90.2398 120.422 90.1696 120.255 90.1673 120.058C90.1628 119.852 90.2285 119.678 90.3598 119.538C90.4912 119.399 90.6587 119.325 90.8625 119.323C91.0663 119.318 91.2362 119.383 91.3743 119.513C91.5124 119.644 91.5826 119.808 91.5849 120.008C91.5894 120.214 91.526 120.388 91.3992 120.532C91.2701 120.676 91.1003 120.75 90.8897 120.754ZM90.5025 128L90.387 121.931L91.4354 121.911L91.5509 127.979L90.5025 128Z" fill="#F1EAFF"/>
<path d="M96.132 127.773L95.6542 121.723L96.6551 121.643L96.7842 123.287L96.6528 122.884C96.7797 122.453 97.022 122.112 97.382 121.86C97.7421 121.608 98.1972 121.462 98.7498 121.416L98.8335 122.479C98.7905 122.474 98.7475 122.474 98.7067 122.479C98.666 122.481 98.6297 122.485 98.5935 122.488C98.0342 122.534 97.6062 122.744 97.3073 123.12C97.0084 123.495 96.8861 124.015 96.9382 124.677L97.1759 127.691L96.132 127.775V127.773Z" fill="#F1EAFF"/>
<path d="M101.775 122.041L101.642 121.146L105.29 120.585L105.423 121.48L101.775 122.041ZM105.337 126.786C104.762 126.875 104.291 126.782 103.926 126.504C103.562 126.23 103.333 125.79 103.243 125.185L102.416 119.685L103.453 119.524L104.273 124.982C104.323 125.307 104.436 125.543 104.617 125.694C104.798 125.845 105.031 125.895 105.319 125.852C105.643 125.801 105.899 125.666 106.087 125.444L106.528 126.175C106.392 126.342 106.218 126.477 106.01 126.578C105.801 126.679 105.577 126.75 105.339 126.786H105.337Z" fill="#F1EAFF"/>
<path d="M112.88 125.261C112.4 125.38 111.954 125.392 111.546 125.295C111.137 125.199 110.786 124.986 110.493 124.654C110.199 124.322 109.984 123.866 109.843 123.287L109.026 119.893L110.045 119.641L110.833 122.911C110.973 123.491 111.209 123.892 111.544 124.114C111.879 124.338 112.287 124.391 112.767 124.272C113.12 124.185 113.41 124.034 113.634 123.816C113.858 123.601 114.008 123.328 114.078 122.998C114.148 122.671 114.135 122.3 114.035 121.883L113.301 118.835L114.32 118.583L115.742 124.48L114.778 124.718L114.395 123.127L114.656 123.509C114.567 123.949 114.363 124.32 114.049 124.624C113.732 124.931 113.344 125.14 112.885 125.254L112.88 125.261Z" fill="#F1EAFF"/>
<path d="M122.776 122.261C122.194 122.472 121.637 122.534 121.107 122.442C120.575 122.35 120.111 122.131 119.712 121.78C119.314 121.43 119.012 120.972 118.811 120.404C118.609 119.836 118.548 119.291 118.63 118.766C118.711 118.242 118.913 117.782 119.239 117.383C119.565 116.985 119.988 116.692 120.509 116.502C121.037 116.309 121.546 116.263 122.035 116.36C122.527 116.456 122.964 116.685 123.351 117.042C123.738 117.399 124.035 117.873 124.246 118.464C124.261 118.508 124.277 118.558 124.293 118.618C124.309 118.677 124.325 118.732 124.336 118.785L119.703 120.47L119.438 119.726L123.557 118.228L123.249 118.634C123.125 118.265 122.937 117.965 122.685 117.731C122.432 117.498 122.146 117.349 121.825 117.285C121.503 117.218 121.168 117.25 120.819 117.376C120.478 117.5 120.201 117.692 119.991 117.951C119.78 118.21 119.653 118.512 119.606 118.858C119.558 119.204 119.601 119.563 119.735 119.937L119.796 120.108C119.932 120.489 120.136 120.798 120.41 121.036C120.684 121.274 121.001 121.418 121.361 121.476C121.721 121.531 122.097 121.487 122.486 121.345C122.808 121.228 123.079 121.063 123.304 120.853C123.526 120.642 123.695 120.386 123.813 120.083L124.594 120.553C124.456 120.944 124.23 121.286 123.92 121.576C123.609 121.867 123.229 122.096 122.776 122.259V122.261Z" fill="#F1EAFF"/>
<path d="M129.064 119.598L125.539 111.887L126.49 111.443L130.016 119.153L129.064 119.598Z" fill="#F1EAFF"/>
<path d="M134.15 117.04L130.095 109.599L131.012 109.089L135.068 116.529L134.15 117.04Z" fill="#F1EAFF"/>
<path d="M141.347 112.631C140.84 112.989 140.317 113.192 139.78 113.243C139.243 113.293 138.738 113.204 138.263 112.97C137.787 112.737 137.38 112.373 137.04 111.878C136.7 111.383 136.501 110.87 136.444 110.344C136.388 109.817 136.467 109.318 136.68 108.846C136.893 108.376 137.228 107.98 137.681 107.662C138.141 107.339 138.621 107.16 139.119 107.126C139.617 107.092 140.099 107.197 140.566 107.442C141.03 107.687 141.44 108.067 141.793 108.58C141.818 108.617 141.847 108.663 141.879 108.715C141.911 108.768 141.938 108.818 141.963 108.867L137.919 111.706L137.472 111.058L141.069 108.532L140.874 109.004C140.661 108.681 140.4 108.438 140.097 108.28C139.794 108.122 139.479 108.054 139.15 108.074C138.824 108.095 138.507 108.212 138.202 108.427C137.903 108.638 137.685 108.894 137.549 109.199C137.414 109.503 137.366 109.828 137.409 110.174C137.452 110.52 137.586 110.857 137.81 111.182L137.914 111.333C138.143 111.665 138.419 111.91 138.745 112.068C139.071 112.226 139.413 112.283 139.775 112.242C140.138 112.201 140.489 112.061 140.831 111.823C141.112 111.626 141.333 111.397 141.494 111.134C141.655 110.87 141.755 110.579 141.789 110.257L142.665 110.506C142.631 110.921 142.5 111.31 142.275 111.672C142.051 112.034 141.741 112.354 141.347 112.631Z" fill="#F1EAFF"/>
<path d="M65.6248 56.1566C65.0021 56.4887 64.2027 56.6559 63.229 56.6559C62.1557 56.6559 61.0143 56.5024 59.8074 56.1933C58.6004 55.8841 57.4478 55.4101 56.3495 54.7689L53.4215 61.2062C54.787 61.9711 56.3722 62.5504 58.1769 62.9443C59.9817 63.3382 61.7616 63.5352 63.5189 63.5352C66.2498 63.5352 68.4758 63.1024 70.1968 62.239C71.9156 61.3757 73.1837 60.265 74.0012 58.9093C74.8187 57.5536 75.2263 56.1337 75.2263 54.6544C75.2263 52.3597 74.3839 50.4865 72.7014 49.03C71.7503 48.2079 70.5546 47.6193 69.1144 47.2598L73.8359 42.4049V37.0393H54.7372V43.6255H63.8948L60.1153 47.5094V52.875H63.5189C64.6171 52.875 65.3961 53.0284 65.8603 53.3376C66.3223 53.6467 66.5555 54.0841 66.5555 54.6521C66.5555 55.3185 66.2453 55.8177 65.6226 56.1498L65.6248 56.1566Z" fill="#F1EAFF"/>
<path d="M91.5487 43.2247C92.3526 43.2247 93.1406 43.3163 93.9083 43.5018C94.676 43.6873 95.4391 44.0514 96.1954 44.5942L99.3046 38.4889C98.3286 37.8477 97.1397 37.3484 95.738 36.9912C94.334 36.6339 92.8779 36.4553 91.3653 36.4553C88.5596 36.4553 86.0913 37.0233 83.9559 38.1568C81.8205 39.2927 80.1561 40.9255 78.9604 43.0598C77.7648 45.1941 77.1669 47.7773 77.1669 50.8116C77.1669 53.6238 77.6855 55.9734 78.7226 57.8604C79.7598 59.7474 81.1977 61.1672 83.041 62.1153C84.882 63.0657 87.022 63.5397 89.4631 63.5397C91.3902 63.5397 93.1406 63.1687 94.7144 62.4291C96.2883 61.6894 97.5383 60.6405 98.4644 59.2848C99.3906 57.9291 99.8548 56.3238 99.8548 54.4757C99.8548 52.7742 99.445 51.3063 98.6297 50.072C97.8123 48.8399 96.7389 47.8827 95.4096 47.2048C94.0804 46.527 92.6356 46.188 91.0731 46.188C89.8775 46.188 88.829 46.3415 87.9255 46.6506C87.2031 46.8979 86.5623 47.2369 85.9939 47.6582C86.2158 46.4812 86.6778 45.5262 87.3934 44.8003C88.4305 43.7514 89.8141 43.227 91.5464 43.227L91.5487 43.2247ZM86.5917 53.4727C86.8227 53.0788 87.1352 52.7696 87.5247 52.5475C87.9142 52.3254 88.3671 52.2154 88.8789 52.2154C89.6601 52.2154 90.2942 52.4559 90.781 52.9368C91.2679 53.4177 91.5125 54.0658 91.5125 54.8788C91.5125 55.4215 91.4038 55.891 91.1841 56.2849C90.9645 56.6787 90.6542 56.981 90.2511 57.1917C89.8481 57.4024 89.3906 57.5055 88.8789 57.5055C88.3671 57.5055 87.9142 57.4001 87.5247 57.1917C87.1352 56.9833 86.8227 56.681 86.5917 56.2849C86.3608 55.891 86.2453 55.4215 86.2453 54.8788C86.2453 54.336 86.3608 53.8666 86.5917 53.4727Z" fill="#F1EAFF"/>
<path d="M112.953 63.5374C115.222 63.5374 117.228 63.0061 118.972 61.9458C120.715 60.8855 122.081 59.3443 123.07 57.3199C124.058 55.2978 124.551 52.8543 124.551 49.994C124.551 47.1338 124.058 44.6903 123.07 42.6682C122.083 40.6461 120.715 39.1048 118.972 38.0423C117.228 36.982 115.222 36.4507 112.953 36.4507C110.684 36.4507 108.677 36.982 106.934 38.0423C105.19 39.1026 103.824 40.6461 102.835 42.6682C101.848 44.6903 101.354 47.1338 101.354 49.994C101.354 52.8543 101.848 55.2978 102.835 57.3199C103.822 59.342 105.188 60.8855 106.934 61.9458C108.677 63.0061 110.684 63.5374 112.953 63.5374ZM110.41 46.0551C110.665 45.1048 111.014 44.4338 111.451 44.0376C111.891 43.6437 112.391 43.4445 112.95 43.4445C113.51 43.4445 114.012 43.6414 114.449 44.0376C114.889 44.4315 115.235 45.1048 115.491 46.0551C115.747 47.0055 115.876 48.3177 115.876 49.9963C115.876 51.6749 115.747 52.9574 115.491 53.9192C115.235 54.881 114.886 55.5589 114.449 55.955C114.01 56.3489 113.51 56.5482 112.95 56.5482C112.391 56.5482 111.888 56.3512 111.451 55.955C111.012 55.5611 110.665 54.881 110.41 53.9192C110.154 52.9574 110.025 51.6497 110.025 49.9963C110.025 48.3429 110.154 47.0055 110.41 46.0551Z" fill="#F1EAFF"/>
</g>
<defs>
<clipPath id="clip0_622_96">
<rect width="178" height="128" fill="white"/>
</clipPath>
</defs>
</svg>
