<svg width="99" height="85" viewBox="0 0 99 85" fill="none" xmlns="http://www.w3.org/2000/svg">
<path d="M98.96 27.48C98.96 34.82 96.1 41.72 90.91 46.91C89.94 47.88 88.89 48.79 87.78 49.6C78.34 56.57 70.26 63.44 63.1 70.6L49.48 84.22L35.84 70.58C28.48 63.22 20.23 56.2 11.31 49.7C7.31 46.78 4.21 42.86 2.28 38.42C0.799999 35.01 0 31.29 0 27.49C0 20.15 2.86 13.25 8.05 8.07C13.24 2.88 20.14 0.0200005 27.47 0.0200005C34.81 0.0200005 41.71 2.88 46.9 8.07C47.14 8.31 47.38 8.56 47.61 8.81C47.78 8.99 47.94 9.17 48.1 9.35C48.58 9.9 49.04 10.46 49.48 11.04C53.03 15.76 54.94 21.48 54.94 27.49C54.94 34.83 52.08 41.73 46.89 46.92L39.16 39.19C42.28 36.07 44 31.92 44 27.5C44 27.36 44 27.22 44 27.09C44 26.95 44 26.81 43.99 26.68C43.98 26.55 43.98 26.41 43.96 26.27C43.96 26.13 43.94 26 43.93 25.86C43.92 25.75 43.91 25.64 43.9 25.53C43.9 25.48 43.89 25.43 43.88 25.38C43.86 25.25 43.85 25.12 43.83 25C43.81 24.88 43.79 24.76 43.77 24.65C43.75 24.54 43.73 24.43 43.71 24.33C43.69 24.21 43.66 24.09 43.64 23.97C43.62 23.88 43.6 23.79 43.58 23.7C43.56 23.61 43.54 23.53 43.52 23.44C43.5 23.37 43.48 23.29 43.46 23.22C43.44 23.15 43.42 23.07 43.4 23C43.36 22.84 43.31 22.68 43.26 22.53C43.24 22.47 43.22 22.41 43.2 22.36C43.14 22.17 43.08 21.99 43.01 21.8C43.01 21.8 43.01 21.78 43.01 21.77C43.01 21.76 43.01 21.75 43 21.73C42.75 21.06 42.46 20.41 42.12 19.77C42.12 19.77 42.11 19.75 42.1 19.74C42.05 19.64 41.99 19.54 41.94 19.44C41.88 19.33 41.82 19.23 41.76 19.13C41.69 19.01 41.62 18.89 41.55 18.78C41.36 18.47 41.15 18.16 40.94 17.87C40.78 17.65 40.62 17.44 40.45 17.22C40.4 17.15 40.34 17.08 40.28 17.01C40.18 16.89 40.08 16.77 39.97 16.65C39.9 16.57 39.83 16.49 39.76 16.41C39.58 16.21 39.38 16.01 39.19 15.81C38.95 15.57 38.7 15.34 38.45 15.11C38.34 15.01 38.23 14.92 38.12 14.82C37.92 14.65 37.72 14.49 37.52 14.34C37.35 14.21 37.18 14.08 37.01 13.96C34.25 12.01 30.96 10.96 27.5 10.96C23.08 10.96 18.93 12.68 15.81 15.8C12.68 18.93 10.96 23.08 10.96 27.49C10.96 31.54 12.46 35.43 15.1 38.42C15.89 39.32 16.79 40.14 17.77 40.86C27.15 47.69 35.84 55.09 43.6 62.85L49.5 68.75L55.39 62.87C62.94 55.32 71.42 48.1 81.31 40.8C81.98 40.31 82.61 39.76 83.2 39.17C86.33 36.05 88.04 31.89 88.04 27.47C88.04 23.05 86.32 18.9 83.2 15.78C80.07 12.65 75.92 10.93 71.5 10.93C68.52 10.93 65.67 11.71 63.17 13.18C61.81 9.8 59.97 6.61 57.68 3.72C61.83 1.29 66.57 0 71.5 0C78.84 0 85.74 2.86 90.93 8.05C96.12 13.24 98.98 20.13 98.98 27.47L98.96 27.48Z" fill="#FBFBFB"/>
</svg>
