<svg width="99" height="85" viewBox="0 0 99 85" fill="none" xmlns="http://www.w3.org/2000/svg">
<path d="M98.95 27.47C98.95 28.9 98.84 30.32 98.62 31.7C98.04 35.54 96.65 39.18 94.53 42.41C94.07 43.15 93.55 43.86 92.99 44.55C92.74 44.87 92.47 45.19 92.2 45.5C92.06 45.67 91.91 45.84 91.75 46.01C91.22 46.59 90.66 47.15 90.08 47.69C89.86 47.9 89.62 48.1 89.39 48.3C89.13 48.53 88.86 48.75 88.6 48.96C88.29 49.21 87.97 49.45 87.65 49.69C87.11 50.09 86.57 50.48 86.03 50.9C80.22 55.25 74.95 59.57 70.09 63.95C68.64 65.25 67.21 66.58 65.82 67.92C64.9 68.79 64 69.68 63.11 70.57L49.48 84.21L35.86 70.59C34.48 69.21 33.07 67.84 31.61 66.47C30.71 65.63 29.8 64.79 28.87 63.95C24 59.57 18.73 55.25 12.93 50.9C12.35 50.46 11.77 50.03 11.18 49.59C10.9 49.39 10.63 49.18 10.36 48.96C10.09 48.75 9.81999 48.53 9.55999 48.3C9.34999 48.12 9.13999 47.94 8.93999 47.75C8.63999 47.47 8.33999 47.19 8.04999 46.9C7.09999 45.95 6.23999 44.95 5.45999 43.9C5.27999 43.66 5.09999 43.41 4.92999 43.16L4.41999 42.41C4.07999 41.9 3.75999 41.38 3.47999 40.85C3.22999 40.4 2.99999 39.94 2.76999 39.47C2.18999 38.28 1.69999 37.06 1.29999 35.8V35.78C1.16999 35.38 1.04999 34.98 0.93999 34.58C0.80999 34.08 0.67999 33.58 0.56999 33.07C0.47999 32.61 0.38999 32.15 0.31999 31.69C0.0999902 30.31 -0.0100098 28.89 -0.0100098 27.46C-0.0100098 20.12 2.84999 13.22 8.03999 8.04C13.23 2.86 20.13 0 27.47 0C27.88 0 28.29 0.01 28.7 0.03C29.21 0.05 29.72 0.09 30.23 0.13C30.67 0.18 31.11 0.23 31.54 0.3C31.98 0.36 32.42 0.44 32.85 0.53C32.88 0.53 32.9 0.53 32.92 0.53C33.31 0.61 33.69 0.69 34.07 0.78C34.15 0.8 34.24 0.82 34.32 0.85C34.71 0.95 35.09 1.06 35.47 1.17C35.49 1.17 35.52 1.18 35.55 1.19C35.95 1.32 36.35 1.45 36.74 1.59C37.16 1.74 37.58 1.9 37.99 2.07C38.4 2.24 38.81 2.42 39.21 2.61C39.57 2.78 39.93 2.96 40.29 3.16C40.63 3.33 40.97 3.52 41.3 3.71C43.32 4.9 45.2 6.35 46.9 8.04C47.14 8.28 47.38 8.53 47.61 8.78C47.78 8.96 47.94 9.14 48.1 9.32C48.59 9.87 49.04 10.42 49.48 11C49.92 10.42 50.37 9.87 50.85 9.32C51.01 9.14 51.18 8.96 51.34 8.78C51.57 8.53 51.81 8.28 52.06 8.04C53.76 6.34 55.64 4.89 57.66 3.71C58.37 3.29 59.1 2.91 59.84 2.56C60.18 2.4 60.53 2.25 60.88 2.1C60.91 2.09 60.93 2.08 60.96 2.07C61.34 1.91 61.71 1.77 62.1 1.63C62.55 1.46 63.01 1.31 63.48 1.17C63.86 1.06 64.24 0.95 64.63 0.85C64.71 0.83 64.79 0.81 64.88 0.78C65.26 0.69 65.64 0.61 66.03 0.53C66.05 0.53 66.07 0.53 66.1 0.53C66.53 0.44 66.97 0.36 67.41 0.3C67.84 0.23 68.28 0.18 68.72 0.13C69.23 0.09 69.74 0.05 70.25 0.03C70.66 0.01 71.07 0 71.48 0C78.82 0 85.72 2.86 90.91 8.05C96.09 13.24 98.95 20.14 98.95 27.47Z" fill="#FF103B"/>
</svg>
