<svg width="141" height="42" viewBox="0 0 141 42" fill="none" xmlns="http://www.w3.org/2000/svg">
<g clip-path="url(#clip0_722_15)">
<path d="M60.225 22.8478H66.6079V19.2836H60.225V17.5627H67.4925V13.8264H55.2249V28.5133H67.7718V24.777H60.225V22.8478Z" fill="white"/>
<path d="M74.6947 13.8264L68.0977 28.5088H73.2747L74.285 25.95H80.0254L81.0356 28.5088H86.2965L79.6995 13.8264H74.6993H74.6947ZM75.691 22.3858L77.1529 18.6858L78.6147 22.3858H75.691Z" fill="white"/>
<path d="M98.1218 20.7102C97.6236 20.3886 97.0836 20.1305 96.4923 19.9357C95.901 19.741 95.3098 19.587 94.7139 19.4738C94.1179 19.3606 93.5732 19.2564 93.0751 19.1613C92.5769 19.0617 92.1812 18.9394 91.8786 18.7945C91.576 18.6496 91.427 18.4503 91.427 18.1967C91.427 18.0291 91.4875 17.8751 91.6086 17.7348C91.7296 17.5944 91.9344 17.4811 92.2231 17.3996C92.5117 17.3136 92.8982 17.2728 93.387 17.2728C94.0481 17.2728 94.7278 17.3634 95.4262 17.5445C96.1245 17.7257 96.8461 17.9974 97.591 18.3643L99.1227 14.7775C98.3313 14.3427 97.442 14.0211 96.4504 13.8128C95.4587 13.6045 94.4531 13.5003 93.4336 13.5003C91.8832 13.5003 90.5843 13.7222 89.5415 14.1706C88.4986 14.6189 87.7165 15.2167 87.1904 15.964C86.6643 16.7112 86.4036 17.54 86.4036 18.4503C86.4036 19.2338 86.5526 19.8859 86.8552 20.4113C87.1578 20.9366 87.5582 21.3578 88.0517 21.6793C88.5498 22.0009 89.0945 22.259 89.6904 22.4538C90.2864 22.6485 90.8776 22.807 91.4689 22.9247C92.0601 23.0425 92.6002 23.1557 93.0984 23.2599C93.5965 23.364 93.9922 23.4954 94.2948 23.6494C94.5975 23.8033 94.7464 24.0117 94.7464 24.2789C94.7464 24.4464 94.6813 24.5913 94.5509 24.7091C94.4205 24.8268 94.2157 24.9174 93.9364 24.9808C93.657 25.0442 93.2706 25.0759 92.7818 25.0759C91.9484 25.0759 91.0871 24.9536 90.2072 24.7091C89.3226 24.4645 88.5219 24.1385 87.8049 23.7354L86.1661 27.3448C86.9297 27.7932 87.898 28.1555 89.0759 28.4363C90.2538 28.7171 91.4782 28.8575 92.7399 28.8575C94.3088 28.8575 95.6077 28.631 96.6413 28.1736C97.6748 27.7207 98.457 27.1184 98.9831 26.3712C99.5091 25.6239 99.7699 24.7997 99.7699 23.9075C99.7699 23.1376 99.6209 22.4945 99.3183 21.9782C99.0156 21.4619 98.6153 21.0408 98.1218 20.7192V20.7102Z" fill="white"/>
<path d="M106.372 13.8264H101.283V28.5088H106.372V13.8264Z" fill="white"/>
<path d="M118.746 20.5064L113.01 13.8264H108.83V28.5133H113.788V21.8333L119.524 28.5133H123.704V13.8264H118.746V20.5064Z" fill="white"/>
<path d="M136.149 24.4917C136.093 24.5143 136.032 24.537 135.977 24.5551C135.432 24.7453 134.869 24.8404 134.296 24.8404C133.723 24.8404 133.258 24.7544 132.82 24.5778C132.382 24.4011 132.005 24.1566 131.689 23.835C131.372 23.5135 131.13 23.124 130.958 22.6711C130.786 22.2183 130.697 21.7156 130.697 21.1721C130.697 20.5969 130.786 20.0897 130.958 19.6414C131.13 19.193 131.377 18.8081 131.689 18.4865C132.005 18.165 132.392 17.9204 132.843 17.7529C133.295 17.5853 133.802 17.4993 134.366 17.4993C135.041 17.4993 135.655 17.6351 136.209 17.9068C136.763 18.1786 137.276 18.5816 137.75 19.1115L141.005 16.3218C140.241 15.4115 139.277 14.714 138.104 14.2249C136.931 13.7358 135.599 13.4913 134.105 13.4913C132.853 13.4913 131.707 13.677 130.665 14.0483C129.622 14.4197 128.718 14.945 127.96 15.6334C127.196 16.3172 126.609 17.1279 126.19 18.0653C125.771 19.0028 125.567 20.0354 125.567 21.1676C125.567 22.2998 125.776 23.3369 126.19 24.2698C126.609 25.2073 127.191 26.0179 127.946 26.7018C128.7 27.3856 129.594 27.9155 130.618 28.2868C131.647 28.6582 132.769 28.8439 133.993 28.8439C135.101 28.8439 136.242 28.6808 137.42 28.3593C138.598 28.0377 139.65 27.5758 140.567 26.9735V20.7645H136.149V24.4872V24.4917Z" fill="white"/>
<path d="M23.1617 4.26612C26.8908 5.62023 30.3826 7.49515 33.5716 9.85918C36.8352 12.2776 39.6845 15.1397 42.0635 18.3778C42.1473 19.1794 42.1938 19.9946 42.1938 20.8007C42.1938 22.8659 41.9145 24.9129 41.3698 26.8829C40.8903 28.6084 40.2012 30.2795 39.326 31.8555C34.9078 35.8091 29.1907 37.9784 23.1663 37.9784C17.142 37.9784 11.4295 35.8091 7.01136 31.8555C6.13145 30.2795 5.44707 28.6084 4.96754 26.8829C4.41818 24.9129 4.1435 22.8659 4.1435 20.8007C4.1435 19.9901 4.1854 19.1794 4.27386 18.3778C5.57743 16.6025 7.04395 14.9224 8.63151 13.3735C10.8429 11.2269 13.3011 9.32478 15.9501 7.72159C18.236 6.34031 20.6616 5.18094 23.1757 4.26612M23.1617 0C16.5088 2.16476 10.5496 5.81044 5.69847 10.5294C3.69656 12.4768 1.88087 14.6099 0.283993 16.8969C0.0977679 18.174 0 19.4783 0 20.8007C0 25.7371 1.35013 30.3655 3.70587 34.3599C8.74325 39.088 15.6056 42 23.1617 42C30.7178 42 37.5801 39.088 42.6175 34.3599C44.9733 30.3655 46.3234 25.7371 46.3234 20.8007C46.3234 19.4738 46.2256 18.1695 46.0394 16.8969C40.5737 9.06664 32.5614 3.06146 23.1617 0ZM26.5743 9.13004H19.7491V12.4496C19.7491 14.2838 21.2762 15.7692 23.1617 15.7692C25.0472 15.7692 26.5743 14.2838 26.5743 12.4496V9.13004ZM36.9097 21.2581L34.8007 14.945C27.2354 17.3362 19.088 17.3362 11.5227 14.945L9.41366 21.2581L17.6401 23.8577L12.5562 30.6644L18.0778 34.5683L23.1617 27.7615L28.2456 34.5683L33.7672 30.6644L28.6833 23.8577L36.9097 21.2581Z" fill="white"/>
</g>
<defs>
<clipPath id="clip0_722_15">
<rect width="141" height="42" fill="white"/>
</clipPath>
</defs>
</svg>
