<svg width="17" height="17" viewBox="0 0 17 17" fill="none" xmlns="http://www.w3.org/2000/svg">
<path d="M16.842 15.498L15.494 16.8462L14.5438 15.8958C14.1872 15.5433 13.7832 15.2361 13.3441 14.9826C12.1486 14.292 10.78 14.0425 9.43603 14.2569C8.46726 14.5229 7.45313 14.5744 6.4658 14.4115C5.09303 14.1848 3.77384 13.5416 2.71437 12.482C1.36633 11.1338 0.692307 9.36502 0.692307 7.59832C0.692307 5.83162 1.36633 4.06286 2.71437 2.71464C4.06241 1.36643 5.83095 0.692322 7.59742 0.692322C9.36389 0.692322 11.1324 1.36643 12.4805 2.71464C13.8285 4.06286 14.5025 5.83162 14.5025 7.59832C14.5025 8.62494 14.2758 9.6495 13.8203 10.5937C13.5544 10.4968 13.2864 10.4123 13.0143 10.338C12.6536 10.2391 12.2888 10.1628 11.9239 10.1051C12.363 9.35265 12.5959 8.49301 12.5959 7.59832C12.5959 6.26247 12.0765 5.00702 11.1324 4.06286C10.1884 3.1187 8.9331 2.5992 7.59742 2.5992C6.26175 2.5992 5.00646 3.1187 4.06242 4.06286C3.11837 5.00702 2.59894 6.26247 2.59894 7.59832C2.59894 8.93416 3.11837 10.1896 4.06447 11.1338C4.59421 11.6636 5.21876 12.0594 5.90309 12.3047C6.43901 12.4985 7.01203 12.5974 7.59948 12.5974C7.84683 12.5974 8.09418 12.5789 8.33535 12.5438H8.3374C8.57238 12.5088 8.80324 12.4573 9.02998 12.3913C10.1678 12.1913 11.32 12.247 12.4186 12.5459C13.07 12.7211 13.7007 12.985 14.3005 13.3293C14.8777 13.6612 15.4074 14.0652 15.8794 14.5291C15.8836 14.5332 15.8877 14.5373 15.8897 14.5394L16.8462 15.4959L16.842 15.498Z" fill="#FBFBFB"/>
</svg>
